<svg width="240" height="240" viewBox="0 0 240 240" fill="none" xmlns="http://www.w3.org/2000/svg">
<g clip-path="url(#clip0_6689_2)">
<rect width="240" height="240" rx="35.25" fill="#27382F"/>
<path d="M120.8 213.6C172.052 213.6 213.6 172.052 213.6 120.8C213.6 69.548 172.052 28 120.8 28C69.548 28 28 69.548 28 120.8C28 172.052 69.548 213.6 120.8 213.6Z" fill="white" stroke="white" stroke-opacity="0.1" stroke-width="12.8"/>
<mask id="mask0_6689_2" style="mask-type:luminance" maskUnits="userSpaceOnUse" x="0" y="0" width="240" height="240">
<path d="M0 0H240V240H0V0Z" fill="white"/>
</mask>
<g mask="url(#mask0_6689_2)">
<path d="M105.976 173.256C105.976 173.256 102.224 172.264 103.216 176.456C107.416 182.856 113.704 186.728 121.104 186.728C128.608 186.728 135.904 181.432 138.104 175.128C138.104 172.928 137.112 171.824 134.904 172.928C133.912 174.032 129.608 178.224 121.104 178.224C112.6 178.224 113.376 177.456 105.984 173.264L105.976 173.256Z" fill="#499E6B" stroke="white" stroke-opacity="0.1" stroke-width="12.8"/>
<path d="M25.72 147.536C25.72 147.536 25.056 88.256 31.016 72.248H30.912C33.008 63.848 38.304 62.752 39.408 62.752C39.408 59.552 38.304 52.152 48.024 48.952C54.312 46.856 57.512 43.648 58.616 40.448C62.816 37.36 64.912 35.152 72.312 36.256C140.424 2.91201 188.88 55.24 188.88 55.24C198.48 55.24 203.68 61.64 206.992 69.04C206.992 69.04 213.504 82.96 214.272 90.352C216.704 110.328 216.48 150.624 216.48 150.624C216.48 196.112 177.288 207.928 164.592 211.024C151.792 215.32 96.696 215.32 79.808 212.12C64.352 209.8 25.712 197.216 25.712 147.536H25.72ZM161.4 197.328C161.4 197.328 201.696 190.928 201.696 149.632C201.696 149.632 203.352 113.872 199.488 108.232C199.488 108.232 199.488 104.04 195.296 101.832C191.096 99.848 185.472 78.536 182.6 76.44C175.536 71.696 115.48 75.776 110.4 77.984C105.32 79.968 97.368 95.648 96.704 94.544C96.152 93.328 93.616 89.248 91.408 81.744C79.704 80.744 68.112 102.936 68.112 102.936C66.016 102.936 61.712 92.336 61.712 77.544C61.712 77.544 48.904 77.32 44.816 95.648C40.952 112.544 40.512 147.536 40.512 147.536C40.512 185.296 67.008 195.008 83.016 198.432C97.816 200.528 155 199.424 161.4 197.328Z" fill="#499E6B" stroke="white" stroke-opacity="0.1" stroke-width="12.8"/>
<path d="M191.096 106.136C177.296 105.144 165.928 109.12 156.104 115.736C133.8 130.752 115.368 138.152 86.1041 115.736C76.7281 108.456 64.9041 105.144 51.1121 105.144C8.40005 105.6 18.8001 175.6 54.3121 175.024C76.7281 181.208 98.8081 159.128 98.8081 159.128C117.464 138.488 133.248 148.648 141.2 159.128C147.425 164.883 154.786 169.27 162.809 172.008C170.832 174.746 179.34 175.773 187.784 175.024C222.12 172.152 233.712 108.672 191.096 106.144V106.136Z" fill="#C9DEB6" stroke="white" stroke-opacity="0.1" stroke-width="12.8"/>
<path d="M189.088 156.12C187.134 158.15 184.795 159.77 182.208 160.886C179.62 162.002 176.837 162.59 174.019 162.618C171.202 162.645 168.407 162.11 165.798 161.045C163.19 159.98 160.82 158.405 158.827 156.413C156.834 154.421 155.258 152.052 154.191 149.444C153.125 146.836 152.589 144.042 152.614 141.224C152.64 138.407 153.227 135.623 154.342 133.035C155.456 130.447 157.075 128.107 159.104 126.152C163.103 122.299 168.455 120.169 174.008 120.22C179.561 120.27 184.872 122.498 188.8 126.424C192.728 130.35 194.959 135.66 195.013 141.213C195.066 146.766 192.939 152.119 189.088 156.12ZM83.104 156.12C81.1553 158.17 78.816 159.81 76.2239 160.942C73.6319 162.074 70.8395 162.676 68.0112 162.712C65.1829 162.749 62.3759 162.219 59.7556 161.154C57.1353 160.089 54.7545 158.51 52.7537 156.511C50.7528 154.511 49.1722 152.132 48.1051 149.512C47.0379 146.893 46.5057 144.086 46.5399 141.258C46.574 138.43 47.1738 135.637 48.3039 133.044C49.434 130.451 51.0715 128.11 53.12 126.16C57.1192 122.307 62.4706 120.177 68.0237 120.228C73.5769 120.278 78.8883 122.506 82.8162 126.432C86.7441 130.358 88.9747 135.668 89.0286 141.221C89.0824 146.774 86.9551 152.127 83.104 156.128V156.12Z" fill="white" stroke="white" stroke-opacity="0.1" stroke-width="12.8"/>
<path d="M162.176 133.624C163.496 130.864 168.688 125.68 177.856 127.336C169.016 135.496 180.392 143.336 187.344 136.936C189.552 145.44 183.92 154.272 172.328 154.272C169.352 154.272 155.552 149.192 162.168 133.632L162.176 133.624ZM55.64 133.624C56.96 130.864 62.152 125.68 71.32 127.336C62.48 135.496 73.856 143.336 80.808 136.936C83.016 145.44 77.384 154.272 65.792 154.272C62.816 154.272 49.016 149.192 55.632 133.632L55.64 133.624Z" fill="#499E6B" stroke="white" stroke-opacity="0.1" stroke-width="12.8"/>
<mask id="mask1_6689_2" style="mask-type:luminance" maskUnits="userSpaceOnUse" x="12" y="98" width="217" height="18">
<path d="M228.656 98H12.8V115.2H228.656V98Z" fill="white"/>
</mask>
<g mask="url(#mask1_6689_2)">
<mask id="mask2_6689_2" style="mask-type:luminance" maskUnits="userSpaceOnUse" x="0" y="0" width="240" height="240">
<path d="M0 1.52588e-05H240V240H0V1.52588e-05Z" fill="white"/>
</mask>
<g mask="url(#mask2_6689_2)">
<path d="M66.7201 114.848C73.7218 114.848 80.4367 117.629 85.3877 122.58C90.3387 127.531 93.1201 134.246 93.1201 141.248C93.1201 148.25 90.3387 154.965 85.3877 159.916C80.4367 164.867 73.7218 167.648 66.7201 167.648C59.7184 167.648 53.0034 164.867 48.0524 159.916C43.1015 154.965 40.3201 148.25 40.3201 141.248C40.3201 134.246 43.1015 127.531 48.0524 122.58C53.0034 117.629 59.7184 114.848 66.7201 114.848ZM175.52 114.848C182.522 114.848 189.237 117.629 194.188 122.58C199.139 127.531 201.92 134.246 201.92 141.248C201.92 148.25 199.139 154.965 194.188 159.916C189.237 164.867 182.522 167.648 175.52 167.648C168.518 167.648 161.803 164.867 156.852 159.916C151.901 154.965 149.12 148.25 149.12 141.248C149.12 134.246 151.901 127.531 156.852 122.58C161.803 117.629 168.518 114.848 175.52 114.848Z" fill="#C9DEB6" stroke="white" stroke-opacity="0.1" stroke-width="12.8"/>
</g>
</g>
</g>
</g>
<defs>
<clipPath id="clip0_6689_2">
<rect width="240" height="240" rx="35.25" fill="white"/>
</clipPath>
</defs>
</svg>
